<svg
    id="Layer_1"
    enable-background="new 0 0 512 512"
    height="512"
    viewBox="0 0 512 512"
    width="512"
    xmlns="http://www.w3.org/2000/svg">
        <g>
            <path d="m115.513 510.863c-5.605-2.322-9.26-7.792-9.26-13.859v-113.534h-43.053c-34.911 0-63.2-28.243-63.2-63.201v-257.068c0-34.913 28.243-63.201 63.2-63.201h385.6c34.913 0 63.2 28.243 63.2 63.201v257.069c0 34.911-28.243 63.201-63.2 63.201h-192.8l-124.14 124.14c-4.608 4.608-11.161 5.399-16.347 3.252z" fill="#f5f0eb"/>
            <path d="m512 320.269v-257.068c0-34.958-28.287-63.201-63.2-63.201h-192.8v383.47h192.8c34.957 0 63.2-28.289 63.2-63.201z" fill="#dcd7da"/>
            <path d="m127.467 176.733h-16.067c-9.337 0-17.133-7.548-17.133-17.133 0-9.337 7.548-17.133 17.133-17.133h40.167c8.284 0 15-6.716 15-15s-6.716-15-15-15h-40.167c-26.304 0-47.133 21.351-47.133 47.133 0 26.304 21.351 47.133 47.133 47.133h16.067c9.337 0 17.133 7.548 17.133 17.133 0 9.447-7.686 17.133-17.133 17.133h-40.167c-8.284 0-15 6.716-15 15s6.716 15 15 15h40.167c25.989 0 47.133-21.144 47.133-47.133 0-26.303-21.351-47.133-47.133-47.133z" fill="#f0142d"/>
            <path d="m400.6 176.733h-16.067c-9.337 0-17.133-7.548-17.133-17.133 0-9.337 7.548-17.133 17.133-17.133h40.167c8.284 0 15-6.716 15-15s-6.716-15-15-15h-40.167c-26.304 0-47.133 21.351-47.133 47.133 0 26.304 21.351 47.133 47.133 47.133h16.067c9.337 0 17.133 7.548 17.133 17.133 0 9.447-7.686 17.133-17.133 17.133h-40.167c-8.284 0-15 6.716-15 15s6.716 15 15 15h40.167c25.989 0 47.133-21.144 47.133-47.133 0-26.303-21.351-47.133-47.133-47.133z" fill="#b40000"/>
            <path d="m256 112.467c-30.419 0-55.167 24.748-55.167 55.167v48.2c0 30.418 24.748 55.166 55.167 55.166s55.167-24.748 55.167-55.167v-48.2c0-30.419-24.748-55.166-55.167-55.166zm25.167 103.366c0 13.877-11.29 25.167-25.167 25.167s-25.167-11.29-25.167-25.167v-48.2c0-13.877 11.29-25.167 25.167-25.167s25.167 11.29 25.167 25.167z" fill="#f0142d"/>
            <path d="m311.167 215.833v-48.2c0-30.419-24.748-55.167-55.167-55.167v30c13.877 0 25.167 11.29 25.167 25.167v48.2c0 13.877-11.29 25.167-25.167 25.167v30c30.419 0 55.167-24.748 55.167-55.167z" fill="#b40000"/>
        </g>
</svg>
